<svg id="Capa_1" data-name="Capa 1" xmlns="http://www.w3.org/2000/svg" viewBox="0 0 393.78 383.93"><defs><style>.cls-1{fill:#00005b;}.cls-2{fill:#99f;}</style></defs><path class="cls-1" d="M69.73,0H324.05a69.67,69.67,0,0,1,69.73,69.73V314.2a69.67,69.67,0,0,1-69.73,69.73H69.73A69.67,69.67,0,0,1,0,314.2V69.73A69.67,69.67,0,0,1,69.73,0Z"/><path class="cls-2" d="M93.52,269.24V100.41c0-1.15.49-1.8,1.64-1.8,2.79,0,5.42,0,9.19-.17,3.94-.16,8-.16,12.47-.32s9.19-.17,14.27-.33,10-.17,14.94-.17c13.45,0,24.61,1.64,33.79,5.09a58.53,58.53,0,0,1,22,13.45,52.29,52.29,0,0,1,12,18.71,62.79,62.79,0,0,1,3.77,21.33q0,21.17-9.84,35a56.28,56.28,0,0,1-26.42,20c-11.16,4.1-23.46,5.58-36.92,5.58-3.93,0-6.56,0-8.2-.16s-3.94-.17-7.05-.17v52.67a2.05,2.05,0,0,1-1.81,2.3H95.49c-1.31,0-2-.66-2-2.14Zm35.77-139V185.4c2.3.17,4.43.33,6.4.33h8.69a61.25,61.25,0,0,0,18.87-2.95,28.28,28.28,0,0,0,13.46-8.7c3.44-4.1,5.08-9.68,5.08-16.9a27,27,0,0,0-3.77-14.6,23.75,23.75,0,0,0-11.49-9.35A48,48,0,0,0,147.17,130c-4.26,0-8,0-11.15.16a38.57,38.57,0,0,0-6.73.16Z"/><path class="cls-2" d="M240.53,139.79h28.71a3.69,3.69,0,0,1,3.45,2.63,16.5,16.5,0,0,1,1,4.1c.33,1.64.66,3.44.82,5.08.17,1.81.33,3.78.33,5.91a61.2,61.2,0,0,1,17.56-14.11,50.81,50.81,0,0,1,24.94-6.4,2.05,2.05,0,0,1,2.3,1.81v32.65c0,1.31-.83,1.8-2.63,1.8a71.63,71.63,0,0,0-17.72,1.64,67.74,67.74,0,0,0-13.78,4.43,25.64,25.64,0,0,0-8.37,6.07v83.68c0,1.64-.66,2.3-2.13,2.3H242.66a2.27,2.27,0,0,1-2.62-2V177.86c0-3.94,0-8-.16-12.31s-.17-8.53-.33-12.8c0-3.77-.33-7.38-.66-11.15a1.52,1.52,0,0,1,1.15-1.81c0-.16.33-.16.49,0Z"/></svg>