<svg id="Capa_2" data-name="Capa 2" xmlns="http://www.w3.org/2000/svg" viewBox="0 0 393.78 383.93"><defs><style>.cls-1{fill:#49021f;}.cls-2{fill:#f36;}</style></defs><g id="Surfaces"><g id="Publishing_Surface" data-name="Publishing Surface"><g id="Outline_no_shadow" data-name="Outline no shadow"><path class="cls-1" d="M69.73,0H324.05a69.67,69.67,0,0,1,69.73,69.73V314.2a69.67,69.67,0,0,1-69.73,69.73H69.73A69.67,69.67,0,0,1,0,314.2V69.73A69.67,69.67,0,0,1,69.73,0Z"/></g></g></g><g id="Outlined_Mnemonics_Logos" data-name="Outlined Mnemonics Logos"><g id="Id"><path class="cls-2" d="M143.07,100.41V268.75c0,1.81-.82,2.63-2.29,2.63H108.62c-1.48,0-2.14-.82-2.14-2.63V100.41c0-1.47.82-2.13,2.3-2.13h32a1.86,1.86,0,0,1,2.13,1.64A.61.61,0,0,1,143.07,100.41Z"/><path class="cls-2" d="M237.58,274a81.47,81.47,0,0,1-35.28-7.38,57.19,57.19,0,0,1-24.77-22.31c-6.07-10-9-22.48-9-37.41a67.31,67.31,0,0,1,35.12-60.05c11.48-6.4,25.26-9.52,41.51-9.52a30,30,0,0,1,3.44.16c1.48.17,3.12.17,5.09.33V86c0-1.14.49-1.8,1.64-1.8h33.31a1.48,1.48,0,0,1,1.64,1.15V241.84c0,3,.16,6.24.32,9.85.33,3.44.5,6.73.66,9.51a2.66,2.66,0,0,1-1.64,2.63,125.9,125.9,0,0,1-26.74,7.88A144,144,0,0,1,237.58,274Zm16.08-32.81V169a41,41,0,0,0-4.43-.82c-1.81-.17-3.61-.33-5.42-.33a40.5,40.5,0,0,0-18.54,4.26,36.76,36.76,0,0,0-13.94,12.14c-3.61,5.25-5.42,12.31-5.42,20.84A45.78,45.78,0,0,0,208.7,222a32.06,32.06,0,0,0,7.38,11.65,28.42,28.42,0,0,0,11.16,6.56,42.89,42.89,0,0,0,13.62,2.14c2.46,0,4.76-.17,6.89-.33A14.17,14.17,0,0,0,253.66,241.19Z"/></g></g></svg>